<?xml version="1.0" encoding="utf-8"?>
<!-- Generator: Adobe Illustrator 19.1.0, SVG Export Plug-In . SVG Version: 6.00 Build 0)  -->
<svg version="1.1" id="Layer_1" xmlns="http://www.w3.org/2000/svg" xmlns:xlink="http://www.w3.org/1999/xlink" x="0px" y="0px"
	 viewBox="0 0 706 202.3" style="enable-background:new 0 0 706 202.3;" xml:space="preserve">
<style type="text/css">
	.st0{fill:#4285C5;}
	.st1{opacity:0.5;fill:#4285C5;}
</style>
<g>
	<path class="st0" d="M240.1,124.5V71h4.6v49.4h25.9v4.2H240.1z"/>
	<path class="st0" d="M319.3,124.5l-5.3-13.2h-28.3l-5.3,13.2h-5.3L297,71h5.7l21.9,53.6H319.3z M299.8,75.9l-12.6,31.3h25.3
		L299.8,75.9z"/>
	<path class="st0" d="M343.4,124.5v-22.9L322.1,71h5.5l18.1,26.3L363.7,71h5.5L348,101.7v22.9H343.4z"/>
	<path class="st0" d="M371.9,97.8c0-15.7,10.3-27.7,26-27.7c15.7,0,26,12,26,27.7s-10.4,27.7-26,27.7
		C382.2,125.5,371.9,113.5,371.9,97.8z M419.1,97.8c0-13.6-8.4-23.5-21.2-23.5c-13,0-21.2,9.9-21.2,23.5c0,13.5,8.2,23.5,21.2,23.5
		C410.8,121.3,419.1,111.3,419.1,97.8z"/>
	<path class="st0" d="M435.3,104V71h4.7v32.9c0,10.8,5.7,17.4,16.2,17.4c10.6,0,16.2-6.6,16.2-17.4V71h4.7v33
		c0,13.2-7.1,21.5-20.9,21.5C442.4,125.5,435.3,117.2,435.3,104z"/>
	<path class="st0" d="M504,124.5V75.2h-17.5V71h39.7v4.2h-17.5v49.4H504z"/>
	<path class="st0" d="M589,124.5L567,99.3l-5.9,6.5v18.7h-4.6V71h4.6v29.3L586.9,71h5.9l-22.8,25.5l25,28H589z"/>
	<path class="st0" d="M603.5,124.5V71h4.6v53.6H603.5z"/>
	<path class="st0" d="M635,124.5V75.2h-17.5V71h39.7v4.2h-17.5v49.4H635z"/>
</g>
<g>
	<path class="st0" d="M196.5,133.7l-30.7-92.1c-0.8-2.3-3.4-4.1-5.9-4.1H59.5c-2.5,0-3.9,1.9-3.1,4.1L87,133.7
		c0.8,2.3,3.4,4.1,5.9,4.1h100.4C195.8,137.9,197.2,136,196.5,133.7z M122.8,117.6h-16c-1.7,0-3.4-1.2-3.9-2.8L84.1,58.7
		c-0.5-1.5,0.4-2.8,2.1-2.8h16c1.7,0,3.4,1.2,3.9,2.8l18.7,56.2C125.4,116.4,124.5,117.6,122.8,117.6z M168,117.6h-34.3
		c-1.7,0-3.4-1.2-3.9-2.8l-4.9-14.7c-0.5-1.5,0.4-2.8,2.1-2.8h34.3c1.7,0,3.4,1.2,3.9,2.8l4.9,14.7
		C170.6,116.4,169.7,117.6,168,117.6z"/>
</g>
<path class="st1" d="M78.7,149.2L51.4,67.4h-6.2c-2.5,0-3.9,1.9-3.1,4.1l30.7,92.1c0.8,2.3,3.4,4.1,5.9,4.1h100.4
	c2.5,0,3.9-1.9,3.1-4.1l-3.4-10.3H84.6C82.1,153.4,79.4,151.5,78.7,149.2z"/>
<path class="st1" d="M99.4,128L78.1,67.4H51.4l27.3,81.8c0.8,2.3,3.4,4.1,5.9,4.1h94.2l-8.5-25.4H99.4z"/>
<path class="st1" d="M188.1,149.2L181,128h-10.7H99.4L78.1,67.4L73,53H51.1c-2.5,0-3.9,1.9-3.1,4.1l3.4,10.3l27.3,81.8
	c0.8,2.3,3.4,4.1,5.9,4.1h94.2h6.2C187.4,153.4,188.8,151.5,188.1,149.2z"/>
</svg>
