<?xml version="1.0" encoding="utf-8"?>
<!-- Generator: Adobe Illustrator 19.1.0, SVG Export Plug-In . SVG Version: 6.00 Build 0)  -->
<svg version="1.1" id="Layer_1" xmlns="http://www.w3.org/2000/svg" xmlns:xlink="http://www.w3.org/1999/xlink" x="0px" y="0px"
	 viewBox="0 0 500 500" style="enable-background:new 0 0 500 500;" xml:space="preserve">
<style type="text/css">
	.st0{fill:#ffffff;}
	.st1{opacity:0.5;fill:#ffffff;}
</style>
<g>
	<g>
		<path class="st0" d="M472,343L384.2,79.8c-2.2-6.5-9.7-11.8-16.8-11.8H80.5c-7.1,0-11.1,5.3-9,11.8L159.2,343
			c2.2,6.5,9.7,11.8,16.8,11.8H463C470.1,354.8,474.1,349.5,472,343z M261.5,297h-45.8c-4.7,0-9.8-3.5-11.2-7.9l-53.5-160.5
			c-1.4-4.3,1.2-7.9,6-7.9h45.8c4.7,0,9.8,3.5,11.2,7.9l53.5,160.5C268.9,293.4,266.2,297,261.5,297z M390.6,297h-98.1
			c-4.7,0-9.8-3.5-11.2-7.9l-14-42c-1.4-4.3,1.2-7.9,6-7.9h98.1c4.7,0,9.8,3.5,11.2,7.9l14,42C398,293.4,395.4,297,390.6,297z"/>
	</g>
	<path class="st1" d="M135.3,387.3L57.4,153.5H39.7c-7.1,0-11.1,5.3-9,11.8l87.7,263.2c2.2,6.5,9.7,11.8,16.8,11.8h286.9
		c7.1,0,11.1-5.3,9-11.8l-9.8-29.4H152.1C145,399.1,137.5,393.8,135.3,387.3z"/>
	<path class="st1" d="M194.6,326.5l-61-173H57.4l77.9,233.8c2.2,6.5,9.7,11.8,16.8,11.8h269.2l-24.2-72.6H194.6z"/>
	<path class="st1" d="M448,387.3l-20.3-60.8h-30.6H194.6l-61-173L119,112.2H56.5c-7.1,0-11.1,5.3-9,11.8l9.8,29.4l77.9,233.8
		c2.2,6.5,9.7,11.8,16.8,11.8h269.2h17.7C446.2,399.1,450.2,393.8,448,387.3z"/>
</g>
</svg>
